<svg width="24" height="25" viewBox="0 0 24 25" fill="none" xmlns="http://www.w3.org/2000/svg">
<path d="M12 2.75C6.6 2.75 2.25 7.1 2.25 12.5C2.25 17.9 6.6 22.25 12 22.25C17.4 22.25 21.75 17.9 21.75 12.5C21.75 11.4515 21.609 10.4053 21.234 9.4295L20.016 10.625C20.166 11.225 20.2507 11.8265 20.2507 12.5C20.2507 17.0765 16.5772 20.75 12.0007 20.75C7.42425 20.75 3.75 17.0765 3.75 12.5C3.75 7.9235 7.4235 4.25 12 4.25C14.25 4.25 16.2712 5.14625 17.6955 6.5705L18.75 5.516C17.025 3.7895 14.625 2.75 12 2.75ZM20.4608 5.96075L12 14.4222L8.78925 11.2108L7.71075 12.2892L11.4608 16.0392L12 16.5545L12.5392 16.0392L21.5392 7.03925L20.4608 5.96075Z" fill="#40C73D"/>
</svg>
