<svg width="48" height="48" viewBox="0 0 48 48" fill="none" xmlns="http://www.w3.org/2000/svg">
<g clip-path="url(#clip0_117_1084)">
<path d="M34.6662 16.4533C33.2371 15.5538 32.0594 14.3065 31.2433 12.8282C30.4272 11.3498 29.9993 9.68866 29.9995 8H5.2262C4.98692 8.00369 4.74923 8.03956 4.51953 8.10667L23.7862 27.2933L34.6662 16.4533Z" fill="#1E81C4"/>
<path d="M39.9999 18C39.0976 17.9922 38.2006 17.8621 37.3332 17.6133L25.7199 29.1867C25.2203 29.6833 24.5444 29.9621 23.8399 29.9621C23.1354 29.9621 22.4595 29.6833 21.9599 29.1867L2.66658 10C2.60743 10.2174 2.57607 10.4414 2.57324 10.6667V37.3333C2.57324 38.0406 2.85419 38.7189 3.35429 39.219C3.85439 39.719 4.53266 40 5.23991 40H42.5732C43.2805 40 43.9588 39.719 44.4589 39.219C44.959 38.7189 45.2399 38.0406 45.2399 37.3333V16.52C43.6652 17.4918 41.8503 18.0044 39.9999 18ZM7.06658 37.3333H5.21324V35.4267L14.9066 25.8133L16.7866 27.6933L7.06658 37.3333ZM42.5466 37.3333H40.6799L30.9599 27.6933L32.8399 25.8133L42.5332 35.4267L42.5466 37.3333Z" fill="#1E81C4"/>
<path d="M39.9997 14.6666C43.6816 14.6666 46.6663 11.6818 46.6663 7.99992C46.6663 4.31802 43.6816 1.33325 39.9997 1.33325C36.3178 1.33325 33.333 4.31802 33.333 7.99992C33.333 11.6818 36.3178 14.6666 39.9997 14.6666Z" fill="#1E81C4"/>
</g>
<defs>
<clipPath id="clip0_117_1084">
<rect width="48" height="48" fill="white"/>
</clipPath>
</defs>
</svg>
