<svg width="21" height="20" viewBox="0 0 21 20" fill="none" xmlns="http://www.w3.org/2000/svg">
<path d="M18.3541 8.43166H17.7089V8.39842H10.5005V11.6021H15.027C14.3666 13.4671 12.5922 14.8059 10.5005 14.8059C7.84664 14.8059 5.69494 12.6542 5.69494 10.0003C5.69494 7.3464 7.84664 5.19469 10.5005 5.19469C11.7256 5.19469 12.8401 5.65683 13.6886 6.41171L15.9541 4.14627C14.5236 2.81312 12.6102 1.99097 10.5005 1.99097C6.07738 1.99097 2.49121 5.57714 2.49121 10.0003C2.49121 14.4234 6.07738 18.0096 10.5005 18.0096C14.9237 18.0096 18.5098 14.4234 18.5098 10.0003C18.5098 9.46326 18.4546 8.93905 18.3541 8.43166Z" fill="#F49F0A"/>
<path d="M3.41406 6.27235L6.04552 8.20219C6.75755 6.43934 8.48196 5.19469 10.4999 5.19469C11.7249 5.19469 12.8394 5.65683 13.688 6.41171L15.9535 4.14627C14.523 2.81312 12.6096 1.99097 10.4999 1.99097C7.42353 1.99097 4.75562 3.72779 3.41406 6.27235Z" fill="#E43424"/>
<path d="M10.5004 18.0096C12.5692 18.0096 14.449 17.2179 15.8703 15.9304L13.3914 13.8327C12.5602 14.4648 11.5446 14.8067 10.5004 14.8059C8.41719 14.8059 6.64833 13.4775 5.98196 11.6238L3.37012 13.6361C4.69566 16.2299 7.38759 18.0096 10.5004 18.0096Z" fill="#40C73D"/>
<path d="M18.3535 8.43155H17.7084V8.39832H10.5V11.602H15.0265C14.7106 12.4896 14.1416 13.2652 13.3898 13.833L13.391 13.8322L15.8698 15.9299C15.6944 16.0893 18.5093 14.0048 18.5093 10.0002C18.5093 9.46315 18.4541 8.93894 18.3535 8.43155Z" fill="#1E81C4"/>
</svg>
